_RobotoSerifTextWide-SuperWidth1400.ufo
<glyph name="D" format="2">
  <advance width="979"/>
  <unicode hex="0044"/>
  <anchor x="462.44000000000005" y="741.0" name="top"/>
  <anchor x="462.44000000000005" y="0.0" name="bottom"/>
  <outline>
    <contour>
      <point x="26.319999999999993" y="633.88" type="line"/>
      <point x="39.480000000000004" y="633.88" type="line" smooth="yes"/>
      <point x="67.8" y="633.88"/>
      <point x="89.03999999999999" y="624.88"/>
      <point x="89.03999999999999" y="597.88" type="curve" smooth="yes"/>
      <point x="89.03999999999999" y="112.11999999999999" type="line" smooth="yes"/>
      <point x="89.03999999999999" y="83.11999999999999"/>
      <point x="67.8" y="76.11999999999999"/>
      <point x="39.480000000000004" y="76.11999999999999" type="curve" smooth="yes"/>
      <point x="26.319999999999993" y="76.11999999999999" type="line"/>
      <point x="26.319999999999993" y="0.0" type="line"/>
      <point x="465.9800000000001" y="0.0" type="line" smooth="yes"/>
      <point x="746.8" y="0.0"/>
      <point x="945.1200000000001" y="132.68"/>
      <point x="945.1200000000001" y="357.0" type="curve" smooth="yes"/>
      <point x="945.1200000000001" y="582.32"/>
      <point x="746.8" y="710.0"/>
      <point x="465.9800000000001" y="710.0" type="curve" smooth="yes"/>
      <point x="26.319999999999993" y="710.0" type="line"/>
    </contour>
    <contour>
      <point x="451.81999999999994" y="622.712" type="line" smooth="yes"/>
      <point x="550.48" y="622.712"/>
      <point x="624.3600000000001" y="527.5033335135159"/>
      <point x="624.3600000000001" y="357.0" type="curve" smooth="yes"/>
      <point x="624.3600000000001" y="186.4951504"/>
      <point x="550.48" y="87.28800000000001"/>
      <point x="451.81999999999994" y="87.28800000000001" type="curve" smooth="yes"/>
      <point x="398.18000000000006" y="87.28800000000001" type="line"/>
      <point x="398.18000000000006" y="622.712" type="line"/>
    </contour>
  </outline>
</glyph>
<glyph name="L" format="2">
  <advance width="774.1199999999999"/>
  <unicode hex="004C"/>
  <anchor x="450.81999999999994" y="741.0" name="top"/>
  <anchor x="560.0999999999999" y="710.0" name="right"/>
  <anchor x="562.6399999999999" y="410.0" name="mid"/>
  <anchor x="450.81999999999994" y="0.0" name="bottom"/>
  <outline>
    <contour>
      <point x="472.06000000000006" y="710.0" type="line"/>
      <point x="472.06000000000006" y="633.88" type="line"/>
      <point x="452.81999999999994" y="633.88" type="line" smooth="yes"/>
      <point x="420.96" y="633.88"/>
      <point x="398.18000000000006" y="626.88"/>
      <point x="398.18000000000006" y="597.88" type="curve" smooth="yes"/>
      <point x="398.18000000000006" y="86.45599999999999" type="line"/>
      <point x="473.06000000000006" y="86.45599999999999" type="line" smooth="yes"/>
      <point x="562.6399999999999" y="86.45599999999999"/>
      <point x="600.5800000000002" y="93.45599999999999"/>
      <point x="604.1199999999999" y="129.456" type="curve" smooth="yes"/>
      <point x="615.7399999999999" y="244.8" type="line"/>
      <point x="746.8" y="244.8" type="line"/>
      <point x="746.8" y="0.0" type="line"/>
      <point x="26.319999999999993" y="0.0" type="line"/>
      <point x="26.319999999999993" y="76.11999999999999" type="line"/>
      <point x="37.94" y="76.11999999999999" type="line" smooth="yes"/>
      <point x="67.8" y="76.11999999999999"/>
      <point x="89.03999999999999" y="83.11999999999999"/>
      <point x="89.03999999999999" y="112.11999999999999" type="curve" smooth="yes"/>
      <point x="89.03999999999999" y="597.88" type="line" smooth="yes"/>
      <point x="89.03999999999999" y="626.88"/>
      <point x="67.8" y="633.88"/>
      <point x="37.94" y="633.88" type="curve" smooth="yes"/>
      <point x="26.319999999999993" y="633.88" type="line"/>
      <point x="26.319999999999993" y="710.0" type="line"/>
    </contour>
  </outline>
</glyph>
<glyph name="l" format="2">
  <advance width="405"/>
  <unicode hex="006C"/>
  <anchor x="192.78" y="741.84" name="top"/>
  <anchor x="319.76" y="730.84" name="right"/>
  <anchor x="386.56" y="391.0" name="mid"/>
  <anchor x="196.31999999999996" y="0.0" name="bottom"/>
  <outline>
    <contour>
      <point x="350.62" y="735.0" type="line"/>
      <point x="19.24" y="735.0" type="line"/>
      <point x="19.24" y="660.712" type="line"/>
      <point x="27.319999999999997" y="658.712" type="line" smooth="yes"/>
      <point x="51.1" y="652.2080000000001"/>
      <point x="59.720000000000006" y="647.704"/>
      <point x="59.720000000000006" y="629.52" type="curve" smooth="yes"/>
      <point x="59.720000000000006" y="98.47200000000001" type="line" smooth="yes"/>
      <point x="59.720000000000006" y="76.96000000000001"/>
      <point x="41.48" y="70.792"/>
      <point x="20.240000000000006" y="70.792" type="curve" smooth="yes"/>
      <point x="19.240000000000002" y="70.792" type="line"/>
      <point x="19.240000000000002" y="0.0" type="line"/>
      <point x="391.1" y="0.0" type="line"/>
      <point x="391.1" y="70.792" type="line"/>
      <point x="390.1" y="70.792" type="line" smooth="yes"/>
      <point x="368.31999999999994" y="70.792"/>
      <point x="350.62" y="76.96000000000001"/>
      <point x="350.62" y="98.47200000000001" type="curve" smooth="yes"/>
    </contour>
  </outline>
</glyph>
<glyph name="w" format="2">
  <advance width="1047"/>
  <unicode hex="0077"/>
  <anchor x="507.46000000000004" y="551.0" name="top"/>
  <outline>
    <contour>
      <point x="540.86" y="344.1039999999999" type="line"/>
      <point x="452.81999999999994" y="0.0" type="line"/>
      <point x="176.07999999999998" y="0.0" type="line"/>
      <point x="63.26000000000001" y="409.53599999999994" type="line" smooth="yes"/>
      <point x="57.18" y="434.53599999999994"/>
      <point x="43.019999999999996" y="443.03200000000004"/>
      <point x="12.159999999999998" y="443.03200000000004" type="curve"/>
      <point x="9.62" y="443.03200000000004" type="line"/>
      <point x="9.62" y="512.992" type="line"/>
      <point x="404.26" y="512.992" type="line"/>
      <point x="404.26" y="443.03200000000004" type="line"/>
      <point x="403.26" y="443.03200000000004" type="line" smooth="yes"/>
      <point x="375.94" y="443.03200000000004"/>
      <point x="347.0800000000001" y="441.03200000000004"/>
      <point x="347.0800000000001" y="434.03200000000004" type="curve"/>
      <point x="418.41999999999996" y="111.752" type="line"/>
      <point x="369.86000000000007" y="54.344" type="line"/>
      <point x="495.84000000000003" y="512.992" type="line"/>
      <point x="729.1" y="512.992" type="line"/>
      <point x="835.84" y="111.92" type="line"/>
      <point x="777.6600000000001" y="57.84" type="line"/>
      <point x="876.3200000000002" y="422.03200000000004" type="line"/>
      <point x="876.3200000000002" y="434.2"/>
      <point x="849.0" y="443.03200000000004"/>
      <point x="825.2200000000003" y="443.03200000000004" type="curve" smooth="yes"/>
      <point x="824.2200000000003" y="443.03200000000004" type="line"/>
      <point x="824.2200000000003" y="512.992" type="line"/>
      <point x="1038.24" y="512.992" type="line"/>
      <point x="1038.24" y="443.03200000000004" type="line"/>
      <point x="1035.6999999999998" y="443.03200000000004" type="line"/>
      <point x="1011.9200000000003" y="443.03200000000004"/>
      <point x="994.2200000000001" y="431.86400000000003"/>
      <point x="985.6" y="400.86400000000003" type="curve" smooth="yes"/>
      <point x="875.3200000000002" y="0.0" type="line"/>
      <point x="597.04" y="0.0" type="line"/>
      <point x="519.62" y="355.58399999999995" type="line"/>
    </contour>
  </outline>
</glyph>
<glyph name="x" format="2">
  <advance width="714"/>
  <unicode hex="0078"/>
  <outline>
    <contour>
      <point x="705.3199999999999" y="0.0" type="line"/>
      <point x="705.3199999999999" y="69.96000000000001" type="line"/>
      <point x="703.78" y="69.96000000000001" type="line"/>
      <point x="675.46" y="69.96000000000001"/>
      <point x="666.8399999999999" y="80.62400000000002"/>
      <point x="648.14" y="103.96000000000001" type="curve" smooth="yes"/>
      <point x="502.92" y="280.16" type="line"/>
      <point x="498.38" y="284.16" type="line"/>
      <point x="374.4000000000001" y="435.03200000000004" type="line"/>
      <point x="374.4000000000001" y="441.03200000000004"/>
      <point x="400.7199999999999" y="443.03200000000004"/>
      <point x="423.5" y="443.03200000000004" type="curve" smooth="yes"/>
      <point x="427.04" y="443.03200000000004" type="line"/>
      <point x="427.04" y="512.992" type="line"/>
      <point x="9.620000000000005" y="512.992" type="line"/>
      <point x="9.620000000000005" y="442.03200000000004" type="line"/>
      <point x="9.620000000000005" y="442.03200000000004" type="line"/>
      <point x="35.4" y="442.03200000000004"/>
      <point x="43.02000000000001" y="436.2"/>
      <point x="59.72000000000001" y="416.03200000000004" type="curve" smooth="yes"/>
      <point x="206.94" y="238.16000000000003" type="line"/>
      <point x="210.47999999999996" y="235.16000000000003" type="line"/>
      <point x="340.0" y="78.96000000000001" type="line"/>
      <point x="340.0" y="71.96000000000001"/>
      <point x="311.68000000000006" y="69.96000000000001"/>
      <point x="287.9" y="69.96000000000001" type="curve" smooth="yes"/>
      <point x="285.36" y="69.96000000000001" type="line"/>
      <point x="285.36" y="0.0" type="line"/>
    </contour>
    <contour>
      <point x="13.16" y="0.0" type="line"/>
      <point x="224.64000000000004" y="0.0" type="line"/>
      <point x="224.64000000000004" y="69.96000000000001" type="line"/>
      <point x="223.64000000000004" y="69.96000000000001" type="line" smooth="yes"/>
      <point x="200.85999999999996" y="69.96000000000001"/>
      <point x="177.07999999999998" y="77.96000000000001"/>
      <point x="177.07999999999998" y="89.96000000000001" type="curve"/>
      <point x="312.68" y="239.656" type="line"/>
      <point x="228.17999999999998" y="273.656" type="line"/>
      <point x="71.33999999999999" y="107.96000000000001" type="line" smooth="yes"/>
      <point x="50.099999999999994" y="83.45599999999999"/>
      <point x="35.400000000000006" y="69.96000000000001"/>
      <point x="14.16" y="69.96000000000001" type="curve"/>
      <point x="13.16" y="69.96000000000001" type="line"/>
    </contour>
    <contour>
      <point x="487.75999999999993" y="244.336" type="line"/>
      <point x="628.9000000000001" y="398.03200000000004" type="line" smooth="yes"/>
      <point x="655.2200000000003" y="427.872"/>
      <point x="668.3800000000001" y="443.03200000000004"/>
      <point x="693.1600000000001" y="443.03200000000004" type="curve"/>
      <point x="693.1600000000001" y="443.03200000000004" type="line"/>
      <point x="693.1600000000001" y="512.992" type="line"/>
      <point x="488.7600000000001" y="512.992" type="line"/>
      <point x="488.7600000000001" y="443.03200000000004" type="line"/>
      <point x="492.3" y="443.03200000000004" type="line" smooth="yes"/>
      <point x="511.0" y="443.03200000000004"/>
      <point x="532.78" y="435.03200000000004"/>
      <point x="532.78" y="423.03200000000004" type="curve"/>
      <point x="404.25999999999993" y="281.33599999999996" type="line"/>
    </contour>
  </outline>
</glyph>
<glyph name="brokenbar" format="2">
  <advance width="356.1600000000001"/>
  <unicode hex="00A6"/>
  <outline>
    <contour>
      <point x="89.03999999999999" y="766.6400000000001" type="line"/>
      <point x="89.03999999999999" y="363.36" type="line"/>
      <point x="267.65999999999997" y="363.36" type="line"/>
      <point x="267.65999999999997" y="766.6400000000001" type="line"/>
    </contour>
    <contour>
      <point x="89.03999999999999" y="240.336" type="line"/>
      <point x="89.03999999999999" y="-162.94400000000002" type="line"/>
      <point x="267.65999999999997" y="-162.94400000000002" type="line"/>
      <point x="267.65999999999997" y="240.336" type="line"/>
    </contour>
  </outline>
</glyph>
<glyph name="copyright" format="2">
  <advance width="1021.54"/>
  <unicode hex="00A9"/>
  <outline>
    <contour>
      <point x="545.94" y="491.37600000000003" type="curve" smooth="yes"/>
      <point x="591.96" y="491.37600000000003"/>
      <point x="625.3600000000001" y="456.69599999999997"/>
      <point x="637.5200000000002" y="406.512" type="curve"/>
      <point x="717.9399999999998" y="406.512" type="line"/>
      <point x="717.9399999999998" y="550.336" type="line"/>
      <point x="648.14" y="550.336" type="line"/>
      <point x="639.52" y="445.17600000000004" type="line"/>
      <point x="646.6" y="434.856"/>
      <point x="655.2200000000001" y="441.66400000000004"/>
      <point x="685.0799999999997" y="421.024" type="curve"/>
      <point x="666.8399999999999" y="519.0"/>
      <point x="606.12" y="561.336"/>
      <point x="505.46000000000004" y="561.336" type="curve" smooth="yes"/>
      <point x="370.85999999999996" y="561.336"/>
      <point x="264.12" y="476.0"/>
      <point x="264.12" y="354.0" type="curve" smooth="yes"/>
      <point x="264.12" y="231.0"/>
      <point x="369.86000000000007" y="148.664"/>
      <point x="519.62" y="148.664" type="curve" smooth="yes"/>
      <point x="628.9" y="148.664"/>
      <point x="708.8600000000001" y="207.512"/>
      <point x="727.5600000000002" y="288.344" type="curve"/>
      <point x="659.7600000000001" y="315.99199999999996" type="line"/>
      <point x="645.5999999999999" y="258.81600000000003"/>
      <point x="607.6600000000001" y="219.456"/>
      <point x="550.48" y="219.456" type="curve" smooth="yes"/>
      <point x="485.22" y="219.456"/>
      <point x="456.3600000000001" y="270.9944595121799"/>
      <point x="456.3600000000001" y="354.0" type="curve" smooth="yes"/>
      <point x="456.3600000000001" y="441.50332626503666"/>
      <point x="483.68000000000006" y="491.37600000000003"/>
    </contour>
    <contour>
      <point x="154.84000000000003" y="355.0" type="curve" smooth="yes"/>
      <point x="154.84000000000003" y="531.016"/>
      <point x="297.52" y="668.032"/>
      <point x="510.0" y="668.032" type="curve" smooth="yes"/>
      <point x="723.0200000000002" y="668.032"/>
      <point x="866.7" y="531.016"/>
      <point x="866.7" y="355.0" type="curve" smooth="yes"/>
      <point x="866.7" y="178.98399999999998"/>
      <point x="723.0200000000002" y="41.96799999999999"/>
      <point x="510.0" y="41.96799999999999" type="curve" smooth="yes"/>
      <point x="297.52" y="41.96799999999999"/>
      <point x="154.84000000000003" y="178.95538000003813"/>
    </contour>
    <contour>
      <point x="35.400000000000006" y="355.0" type="curve" smooth="yes"/>
      <point x="35.400000000000006" y="133.008"/>
      <point x="235.26" y="-37.984"/>
      <point x="510.0" y="-37.984" type="curve" smooth="yes"/>
      <point x="785.7399999999999" y="-37.984"/>
      <point x="985.6000000000001" y="133.008"/>
      <point x="985.6000000000001" y="355.0" type="curve" smooth="yes"/>
      <point x="985.6000000000001" y="576.992"/>
      <point x="785.7399999999999" y="747.984"/>
      <point x="510.0" y="747.984" type="curve" smooth="yes"/>
      <point x="235.26" y="747.984"/>
      <point x="35.400000000000006" y="576.992"/>
    </contour>
  </outline>
</glyph>
<glyph name="AE" format="2">
  <advance width="1148.52"/>
  <unicode hex="00C6"/>
  <anchor x="736.1799999999998" y="741.0" name="top"/>
  <outline>
    <contour>
      <point x="6.08" y="0.0" type="line"/>
      <point x="258.04" y="0.0" type="line"/>
      <point x="258.04" y="76.11999999999999" type="line"/>
      <point x="244.88" y="76.11999999999999" type="line" smooth="yes"/>
      <point x="216.56" y="76.11999999999999"/>
      <point x="193.77999999999997" y="83.11999999999999"/>
      <point x="193.77999999999997" y="94.11999999999999" type="curve"/>
      <point x="269.65999999999997" y="224.368" type="line"/>
      <point x="506.46000000000004" y="224.368" type="line"/>
      <point x="506.46000000000004" y="107.752" type="line" smooth="yes"/>
      <point x="506.46000000000004" y="82.448"/>
      <point x="485.2199999999999" y="76.11999999999999"/>
      <point x="455.36000000000007" y="76.11999999999999" type="curve" smooth="yes"/>
      <point x="443.74" y="76.11999999999999" type="line"/>
      <point x="443.74" y="0.0" type="line"/>
      <point x="1121.2" y="0.0" type="line"/>
      <point x="1121.2" y="231.97600000000003" type="line"/>
      <point x="1011.9199999999998" y="231.97600000000003" type="line"/>
      <point x="998.7600000000002" y="129.456" type="line" smooth="yes"/>
      <point x="994.22" y="93.45599999999999"/>
      <point x="959.28" y="86.45599999999999"/>
      <point x="869.24" y="86.45599999999999" type="curve" smooth="yes"/>
      <point x="815.6000000000001" y="86.45599999999999" type="line"/>
      <point x="815.6000000000001" y="324.352" type="line"/>
      <point x="1009.38" y="313.19199999999995" type="line"/>
      <point x="1009.38" y="413.64" type="line"/>
      <point x="815.6000000000001" y="402.47999999999996" type="line"/>
      <point x="815.6000000000001" y="623.544" type="line"/>
      <point x="871.7800000000001" y="623.544" type="line" smooth="yes"/>
      <point x="930.9600000000002" y="623.544"/>
      <point x="973.9799999999999" y="616.544"/>
      <point x="975.98" y="580.544" type="curve" smooth="yes"/>
      <point x="982.0600000000002" y="503.024" type="line"/>
      <point x="1089.34" y="503.024" type="line"/>
      <point x="1089.34" y="710.0" type="line"/>
      <point x="253.5" y="710.0" type="line"/>
      <point x="253.5" y="633.88" type="line"/>
      <point x="277.28000000000003" y="633.88" type="line" smooth="yes"/>
      <point x="349.61999999999995" y="633.88"/>
      <point x="383.02" y="623.552"/>
      <point x="384.02" y="602.2159999999999" type="curve"/>
      <point x="78.42000000000002" y="119.11999999999999" type="line" smooth="yes"/>
      <point x="57.18000000000001" y="86.61600000000001"/>
      <point x="37.93999999999999" y="76.11999999999999"/>
      <point x="12.160000000000004" y="76.11999999999999" type="curve" smooth="yes"/>
      <point x="6.08" y="76.11999999999999" type="line"/>
    </contour>
    <contour>
      <point x="326.84000000000003" y="308.81600000000003" type="line"/>
      <point x="506.46000000000004" y="604.912" type="line"/>
      <point x="506.46000000000004" y="308.81600000000003" type="line"/>
    </contour>
  </outline>
</glyph>
<glyph name="Thorn" format="2">
  <advance width="859.6200000000001"/>
  <unicode hex="00DE"/>
  <outline>
    <contour>
      <point x="474.6" y="710.0" type="line"/>
      <point x="26.319999999999993" y="710.0" type="line"/>
      <point x="26.319999999999993" y="633.88" type="line"/>
      <point x="37.94" y="633.88" type="line" smooth="yes"/>
      <point x="67.8" y="633.88"/>
      <point x="89.03999999999999" y="626.88"/>
      <point x="89.03999999999999" y="597.88" type="curve" smooth="yes"/>
      <point x="89.03999999999999" y="112.11999999999999" type="line" smooth="yes"/>
      <point x="89.03999999999999" y="83.11999999999999"/>
      <point x="67.8" y="76.11999999999999"/>
      <point x="37.94" y="76.11999999999999" type="curve" smooth="yes"/>
      <point x="26.319999999999993" y="76.11999999999999" type="line"/>
      <point x="26.319999999999993" y="0.0" type="line"/>
      <point x="474.6" y="0.0" type="line"/>
      <point x="474.6" y="76.11999999999999" type="line"/>
      <point x="445.74" y="76.11999999999999" type="line" smooth="yes"/>
      <point x="424.5" y="76.11999999999999"/>
      <point x="398.18000000000006" y="79.11999999999999"/>
      <point x="398.18000000000006" y="86.11999999999999" type="curve" smooth="yes"/>
      <point x="398.18000000000006" y="623.88" type="line" smooth="yes"/>
      <point x="398.18000000000006" y="630.88"/>
      <point x="424.5" y="633.88"/>
      <point x="445.74" y="633.88" type="curve" smooth="yes"/>
      <point x="474.6" y="633.88" type="line"/>
    </contour>
    <contour>
      <point x="279.2800000000001" y="149.008" type="line"/>
      <point x="506.4600000000001" y="149.008" type="line" smooth="yes"/>
      <point x="719.48" y="149.008"/>
      <point x="851.54" y="230.84799999999998"/>
      <point x="851.54" y="367.16" type="curve" smooth="yes"/>
      <point x="851.54" y="498.47999999999996"/>
      <point x="727.5600000000002" y="571.656"/>
      <point x="512.54" y="571.656" type="curve" smooth="yes"/>
      <point x="279.2800000000001" y="571.656" type="line"/>
      <point x="279.2800000000001" y="484.368" type="line"/>
      <point x="430.58000000000004" y="484.368" type="line" smooth="yes"/>
      <point x="498.38000000000005" y="484.368"/>
      <point x="546.9399999999999" y="447.84"/>
      <point x="546.9399999999999" y="363.0" type="curve" smooth="yes"/>
      <point x="546.9399999999999" y="277.992"/>
      <point x="498.38000000000005" y="236.296"/>
      <point x="427.03999999999996" y="236.296" type="curve" smooth="yes"/>
      <point x="279.2800000000001" y="236.296" type="line"/>
    </contour>
  </outline>
</glyph>
<glyph name="dcroat" format="2">
  <advance width="813.0600000000002"/>
  <unicode hex="0111"/>
  <outline>
    <contour>
      <point x="324.84000000000003" y="250.0" type="curve" smooth="yes"/>
      <point x="324.84000000000003" y="353.03999999999996"/>
      <point x="345.08000000000004" y="417.736"/>
      <point x="400.71999999999997" y="417.736" type="curve" smooth="yes"/>
      <point x="454.3600000000001" y="417.736"/>
      <point x="473.06000000000006" y="370.072"/>
      <point x="498.38000000000005" y="304.67999999999995" type="curve"/>
      <point x="550.48" y="322.52000000000004" type="line"/>
      <point x="518.6199999999999" y="454.848"/>
      <point x="445.74" y="522.992"/>
      <point x="305.6" y="522.992" type="curve" smooth="yes"/>
      <point x="142.67999999999998" y="522.992"/>
      <point x="27.32" y="409.832"/>
      <point x="27.32" y="250.0" type="curve" smooth="yes"/>
      <point x="27.32" y="94.0"/>
      <point x="132.06" y="-10.0"/>
      <point x="295.98" y="-10.0" type="curve" smooth="yes"/>
      <point x="420.96000000000015" y="-10.0"/>
      <point x="475.6" y="48.336"/>
      <point x="535.3199999999999" y="163.024" type="curve"/>
      <point x="496.84000000000003" y="219.136" type="line"/>
      <point x="462.44" y="144.09599999999998"/>
      <point x="438.66" y="95.256"/>
      <point x="391.1" y="95.256" type="curve" smooth="yes"/>
      <point x="343.54" y="95.256"/>
      <point x="324.84000000000003" y="149.29600000000002"/>
    </contour>
    <contour>
      <point x="467.52" y="735.0" type="line"/>
      <point x="467.52" y="108.34400000000001" type="line"/>
      <point x="480.14" y="120.32" type="line"/>
      <point x="480.14" y="0.0" type="line"/>
      <point x="798.9" y="0.0" type="line"/>
      <point x="798.9" y="74.11999999999999" type="line"/>
      <point x="790.8200000000002" y="75.78399999999999" type="line"/>
      <point x="767.04" y="80.77600000000001"/>
      <point x="758.4199999999998" y="85.28"/>
      <point x="758.4199999999998" y="103.464" type="curve" smooth="yes"/>
      <point x="758.4199999999998" y="735.0" type="line"/>
    </contour>
    <contour>
      <point x="811.0600000000002" y="652.968" type="line"/>
      <point x="293.44" y="652.968" type="line"/>
      <point x="293.44" y="565.192" type="line"/>
      <point x="811.0600000000002" y="565.192" type="line"/>
    </contour>
  </outline>
</glyph>
<glyph name="Ldot" format="2">
  <advance width="819.1399999999999"/>
  <unicode hex="013F"/>
  <outline>
    <contour>
      <point x="472.06000000000006" y="710.0" type="line"/>
      <point x="472.06000000000006" y="633.88" type="line"/>
      <point x="452.81999999999994" y="633.88" type="line" smooth="yes"/>
      <point x="420.96" y="633.88"/>
      <point x="398.18000000000006" y="626.88"/>
      <point x="398.18000000000006" y="597.88" type="curve" smooth="yes"/>
      <point x="398.18000000000006" y="86.45599999999999" type="line"/>
      <point x="473.06000000000006" y="86.45599999999999" type="line" smooth="yes"/>
      <point x="562.6399999999999" y="86.45599999999999"/>
      <point x="599.04" y="93.45599999999999"/>
      <point x="604.1199999999999" y="129.456" type="curve" smooth="yes"/>
      <point x="615.7399999999999" y="232.32" type="line"/>
      <point x="746.8" y="232.32" type="line"/>
      <point x="746.8" y="0.0" type="line"/>
      <point x="26.319999999999993" y="0.0" type="line"/>
      <point x="26.319999999999993" y="76.11999999999999" type="line"/>
      <point x="37.94" y="76.11999999999999" type="line" smooth="yes"/>
      <point x="67.8" y="76.11999999999999"/>
      <point x="89.03999999999999" y="83.11999999999999"/>
      <point x="89.03999999999999" y="112.11999999999999" type="curve" smooth="yes"/>
      <point x="89.03999999999999" y="597.88" type="line" smooth="yes"/>
      <point x="89.03999999999999" y="626.88"/>
      <point x="67.8" y="633.88"/>
      <point x="37.94" y="633.88" type="curve" smooth="yes"/>
      <point x="26.319999999999993" y="633.88" type="line"/>
      <point x="26.319999999999993" y="710.0" type="line"/>
    </contour>
    <component base="periodcentered" xOffset="439.88000000000005" yOffset="63.64"/>
  </outline>
</glyph>
<glyph name="lslash" format="2">
  <advance width="466.98"/>
  <unicode hex="0142"/>
  <outline>
    <contour>
      <point x="19.240000000000002" y="189.664" type="line"/>
      <point x="452.81999999999994" y="428.544" type="line"/>
      <point x="452.81999999999994" y="526.0" type="line"/>
      <point x="19.240000000000002" y="287.12" type="line"/>
    </contour>
    <component base="l" xOffset="63.260000000000005"/>
  </outline>
</glyph>
<glyph name="daggerdbl" format="2">
  <advance width="665.8399999999999"/>
  <unicode hex="2021"/>
  <outline>
    <contour>
      <point x="278.28000000000003" y="492.192" type="line"/>
      <point x="387.55999999999995" y="492.192" type="line"/>
      <point x="588.4199999999998" y="430.86400000000003" type="line"/>
      <point x="635.98" y="430.86400000000003" type="line"/>
      <point x="635.98" y="599.6160000000001" type="line"/>
      <point x="588.4199999999998" y="599.6160000000001" type="line"/>
      <point x="387.55999999999995" y="541.16" type="line"/>
      <point x="278.28000000000003" y="541.16" type="line"/>
      <point x="77.42000000000002" y="599.6160000000001" type="line"/>
      <point x="29.86" y="599.6160000000001" type="line"/>
      <point x="29.86" y="430.86400000000003" type="line"/>
      <point x="77.42000000000002" y="430.86400000000003" type="line"/>
    </contour>
    <contour>
      <point x="278.28000000000003" y="217.808" type="line"/>
      <point x="77.42000000000002" y="279.13599999999997" type="line"/>
      <point x="29.86" y="279.13599999999997" type="line"/>
      <point x="29.86" y="110.38399999999999" type="line"/>
      <point x="77.42000000000002" y="110.38399999999999" type="line"/>
      <point x="278.28000000000003" y="168.83999999999997" type="line"/>
      <point x="387.55999999999995" y="168.83999999999997" type="line"/>
      <point x="588.4199999999998" y="110.38399999999999" type="line"/>
      <point x="635.98" y="110.38399999999999" type="line"/>
      <point x="635.98" y="279.13599999999997" type="line"/>
      <point x="588.4199999999998" y="279.13599999999997" type="line"/>
      <point x="387.55999999999995" y="217.808" type="line"/>
    </contour>
    <contour>
      <point x="132.06" y="323.848" type="line"/>
      <point x="222.1" y="293.832"/>
      <point x="275.74" y="259.496"/>
      <point x="275.74" y="201.48000000000002" type="curve"/>
      <point x="275.74" y="144.30399999999997"/>
      <point x="166.45999999999998" y="70.0"/>
      <point x="166.45999999999998" y="35.0" type="curve" smooth="yes"/>
      <point x="166.45999999999998" y="0.0" type="line"/>
      <point x="499.3800000000001" y="0.0" type="line"/>
      <point x="499.3800000000001" y="35.0" type="line" smooth="yes"/>
      <point x="499.3800000000001" y="70.0"/>
      <point x="390.1" y="144.30399999999997"/>
      <point x="390.1" y="201.48000000000002" type="curve"/>
      <point x="390.1" y="259.496"/>
      <point x="443.74" y="293.832"/>
      <point x="533.7800000000001" y="323.848" type="curve"/>
      <point x="533.7800000000001" y="386.152" type="line"/>
      <point x="443.74" y="416.168"/>
      <point x="390.1" y="450.504"/>
      <point x="390.1" y="508.52000000000004" type="curve"/>
      <point x="390.1" y="565.696"/>
      <point x="499.3800000000001" y="640.0"/>
      <point x="499.3800000000001" y="675.0" type="curve" smooth="yes"/>
      <point x="499.3800000000001" y="710.0" type="line"/>
      <point x="166.45999999999998" y="710.0" type="line"/>
      <point x="166.45999999999998" y="675.0" type="line" smooth="yes"/>
      <point x="166.45999999999998" y="640.0"/>
      <point x="275.74" y="565.696"/>
      <point x="275.74" y="508.52000000000004" type="curve"/>
      <point x="275.74" y="450.504"/>
      <point x="222.1" y="416.168"/>
      <point x="132.06" y="386.152" type="curve"/>
    </contour>
  </outline>
</glyph>
<glyph name="bullet" format="2">
  <advance width="511.0"/>
  <unicode hex="2022"/>
  <outline>
    <contour>
      <point x="47.56000000000002" y="341.16" type="curve" smooth="yes"/>
      <point x="47.56000000000002" y="246.68800000000002"/>
      <point x="134.6" y="181.208"/>
      <point x="255.5" y="181.208" type="curve" smooth="yes"/>
      <point x="376.94" y="181.208"/>
      <point x="463.44000000000005" y="246.68800000000002"/>
      <point x="463.44000000000005" y="341.16" type="curve" smooth="yes"/>
      <point x="463.44000000000005" y="435.632"/>
      <point x="376.94" y="501.11199999999997"/>
      <point x="255.5" y="501.11199999999997" type="curve" smooth="yes"/>
      <point x="134.6" y="501.11199999999997"/>
      <point x="47.56000000000002" y="435.632"/>
    </contour>
  </outline>
</glyph>
<glyph name="naira" format="2">
  <advance width="665.8399999999999"/>
  <unicode hex="20A6"/>
  <outline>
    <contour>
      <point x="128.52" y="692.6719999999999" type="line"/>
      <point x="317.21999999999997" y="0.0" type="line"/>
      <point x="599.04" y="0.0" type="line"/>
      <point x="599.04" y="597.0400000000001" type="line" smooth="yes"/>
      <point x="599.04" y="626.0400000000001"/>
      <point x="618.2800000000001" y="633.88"/>
      <point x="644.6" y="633.88" type="curve" smooth="yes"/>
      <point x="653.6800000000001" y="633.88" type="line"/>
      <point x="653.6800000000001" y="710.0" type="line"/>
      <point x="442.2" y="710.0" type="line"/>
      <point x="442.2" y="633.88" type="line"/>
      <point x="450.81999999999994" y="633.88" type="line"/>
      <point x="471.01599999934" y="633.88"/>
      <point x="489.76000000000005" y="625.88"/>
      <point x="489.76000000000005" y="618.88" type="curve" smooth="yes"/>
      <point x="489.76000000000005" y="58.29600000000001" type="line"/>
      <point x="545.9399999999999" y="20.832000000000004" type="line"/>
      <point x="367.32" y="710.0" type="line"/>
      <point x="12.159999999999998" y="710.0" type="line"/>
      <point x="12.159999999999998" y="633.88" type="line"/>
      <point x="21.240000000000002" y="633.88" type="line" smooth="yes"/>
      <point x="47.56" y="633.88"/>
      <point x="66.80000000000001" y="626.88"/>
      <point x="66.80000000000001" y="597.88" type="curve" smooth="yes"/>
      <point x="66.80000000000001" y="117.11999999999999" type="line" smooth="yes"/>
      <point x="66.80000000000001" y="88.11999999999999"/>
      <point x="47.56" y="76.11999999999999"/>
      <point x="21.240000000000002" y="76.11999999999999" type="curve" smooth="yes"/>
      <point x="12.159999999999998" y="76.11999999999999" type="line"/>
      <point x="12.159999999999998" y="0.0" type="line"/>
      <point x="227.18000000000006" y="0.0" type="line"/>
      <point x="227.18000000000006" y="76.11999999999999" type="line"/>
      <point x="218.55999999999997" y="76.11999999999999" type="line" smooth="yes"/>
      <point x="196.60923076851998" y="76.11999999999999"/>
      <point x="176.07999999999998" y="84.11999999999999"/>
      <point x="176.07999999999998" y="91.11999999999999" type="curve" smooth="yes"/>
      <point x="176.07999999999998" y="673.536" type="line"/>
    </contour>
    <contour>
      <point x="110.82000000000002" y="504.592" type="line"/>
      <point x="12.159999999999998" y="504.592" type="line"/>
      <point x="12.159999999999998" y="429.296" type="line"/>
      <point x="110.82000000000001" y="429.296" type="line"/>
    </contour>
    <contour>
      <point x="294.98" y="437.616" type="line"/>
      <point x="532.78" y="437.616" type="line"/>
      <point x="550.48" y="429.296" type="line"/>
      <point x="653.6800000000001" y="429.296" type="line"/>
      <point x="653.6800000000001" y="504.592" type="line"/>
      <point x="299.5199999999999" y="504.592" type="line"/>
    </contour>
    <contour>
      <point x="553.02" y="252.824" type="line"/>
      <point x="653.6800000000001" y="252.824" type="line"/>
      <point x="653.6800000000001" y="328.12" type="line"/>
      <point x="553.02" y="328.12" type="line"/>
    </contour>
    <contour>
      <point x="401.7199999999999" y="319.8" type="line"/>
      <point x="135.6" y="319.8" type="line"/>
      <point x="124.97999999999999" y="328.12" type="line"/>
      <point x="12.159999999999998" y="328.12" type="line"/>
      <point x="12.159999999999998" y="252.824" type="line"/>
      <point x="401.72" y="252.824" type="line"/>
    </contour>
  </outline>
</glyph>
<glyph name="peseta" format="2">
  <advance width="665.8399999999999"/>
  <unicode hex="20A7"/>
  <outline>
    <contour>
      <point x="12.160000000000004" y="0.0" type="line"/>
      <point x="253.5" y="0.0" type="line"/>
      <point x="253.5" y="76.11999999999999" type="line"/>
      <point x="247.42000000000002" y="76.11999999999999" type="line" smooth="yes"/>
      <point x="230.72000000000003" y="76.11999999999999"/>
      <point x="210.48" y="79.11999999999999"/>
      <point x="210.48" y="84.45599999999999" type="curve" smooth="yes"/>
      <point x="210.48" y="255.0" type="line"/>
      <point x="215.02000000000004" y="255.0" type="line" smooth="yes"/>
      <point x="354.1600000000001" y="255.0"/>
      <point x="429.04" y="363.312"/>
      <point x="429.04" y="486.0" type="curve" smooth="yes"/>
      <point x="429.04" y="622.0"/>
      <point x="354.15999999999997" y="710.0"/>
      <point x="203.39999999999998" y="710.0" type="curve" smooth="yes"/>
      <point x="12.160000000000004" y="710.0" type="line"/>
      <point x="12.160000000000004" y="633.88" type="line"/>
      <point x="13.16" y="633.88" type="line" smooth="yes"/>
      <point x="24.780000000000005" y="633.88"/>
      <point x="33.400000000000006" y="629.376"/>
      <point x="33.400000000000006" y="608.696" type="curve" smooth="yes"/>
      <point x="33.400000000000006" y="101.304" type="line" smooth="yes"/>
      <point x="33.400000000000006" y="80.62400000000001"/>
      <point x="24.780000000000005" y="76.11999999999999"/>
      <point x="13.16" y="76.11999999999999" type="curve" smooth="yes"/>
      <point x="12.160000000000004" y="76.11999999999999" type="line"/>
    </contour>
    <contour>
      <point x="217.55999999999997" y="617.2239999999999" type="line" smooth="yes"/>
      <point x="242.34000000000003" y="617.2239999999999"/>
      <point x="254.5" y="572.528"/>
      <point x="254.5" y="485.0" type="curve" smooth="yes"/>
      <point x="254.5" y="397.472"/>
      <point x="244.88" y="347.44"/>
      <point x="217.56" y="347.44" type="curve" smooth="yes"/>
      <point x="210.48" y="347.44" type="line"/>
      <point x="210.48" y="617.2239999999999" type="line"/>
    </contour>
    <contour>
      <point x="385.02" y="417.72" type="line"/>
      <point x="663.3" y="417.72" type="line"/>
      <point x="663.3" y="508.0" type="line"/>
      <point x="511.0" y="508.0" type="line"/>
      <point x="467.52" y="566.68" type="line"/>
      <point x="467.52" y="514.0"/>
      <point x="449.2800000000001" y="503.0"/>
      <point x="413.88" y="503.0" type="curve" smooth="yes"/>
      <point x="385.02" y="503.0" type="line"/>
    </contour>
    <contour>
      <point x="610.2" y="121.31200000000001" type="curve" smooth="yes"/>
      <point x="610.2" y="648.0" type="line"/>
      <point x="467.52" y="648.0" type="line"/>
      <point x="467.52" y="500.0" type="line"/>
      <point x="430.58000000000004" y="492.0" type="line"/>
      <point x="430.58000000000004" y="109.0" type="line" smooth="yes"/>
      <point x="430.58000000000004" y="21.0"/>
      <point x="495.89923076852" y="-11.0"/>
      <point x="590.96" y="-11.0" type="curve" smooth="yes"/>
      <point x="627.9" y="-11.0"/>
      <point x="646.6" y="-8.0"/>
      <point x="663.3" y="-3.3360000000000003" type="curve"/>
      <point x="663.3" y="88.28" type="line"/>
      <point x="659.7600000000001" y="86.77599999999998"/>
      <point x="648.1399999999999" y="84.77599999999998"/>
      <point x="641.0600000000001" y="84.77599999999998" type="curve" smooth="yes"/>
      <point x="620.8199999999999" y="84.77599999999998"/>
      <point x="610.2" y="95.95200000000001"/>
    </contour>
  </outline>
</glyph>
<glyph name="Euro" format="2">
  <advance width="665.8399999999999"/>
  <unicode hex="20AC"/>
  <outline>
    <contour>
      <point x="12.159999999999998" y="470.96799999999996" type="line"/>
      <point x="12.159999999999998" y="382.52000000000004" type="line"/>
      <point x="519.62" y="382.52000000000004" type="line"/>
      <point x="519.62" y="470.96799999999996" type="line"/>
    </contour>
    <contour>
      <point x="12.159999999999998" y="315.13599999999997" type="line"/>
      <point x="12.159999999999998" y="226.68800000000002" type="line"/>
      <point x="472.06" y="226.68800000000002" type="line"/>
      <point x="472.06" y="315.13599999999997" type="line"/>
    </contour>
    <contour>
      <point x="405.2600000000001" y="-10.0" type="curve" smooth="yes"/>
      <point x="554.02" y="-10.0"/>
      <point x="630.4399999999999" y="60.832"/>
      <point x="664.8399999999999" y="162.0" type="curve"/>
      <point x="562.6399999999999" y="203.48000000000002" type="line"/>
      <point x="543.4" y="147.784"/>
      <point x="501.91999999999996" y="87.77599999999998"/>
      <point x="444.74" y="87.77599999999998" type="curve" smooth="yes"/>
      <point x="377.94000000000005" y="87.77599999999998"/>
      <point x="348.6199999999999" y="161.792"/>
      <point x="348.6199999999999" y="355.0" type="curve" smooth="yes"/>
      <point x="348.6199999999999" y="554.704"/>
      <point x="367.32" y="626.384"/>
      <point x="427.03999999999996" y="626.384" type="curve" smooth="yes"/>
      <point x="448.28000000000003" y="626.384"/>
      <point x="463.98" y="613.3599999999999"/>
      <point x="473.0600000000001" y="598.5039999999999" type="curve"/>
      <point x="510.0" y="612.84"/>
      <point x="516.55503553328" y="629.4145037778204"/>
      <point x="443.74" y="643.52" type="curve"/>
      <point x="443.74" y="539.1840000000001" type="line"/>
      <point x="651.6800000000001" y="539.1840000000001" type="line"/>
      <point x="651.6800000000001" y="675.4960000000001" type="line"/>
      <point x="626.3600000000001" y="689.336"/>
      <point x="554.0199999999999" y="720.0"/>
      <point x="430.58000000000004" y="720.0" type="curve" smooth="yes"/>
      <point x="220.10000000000002" y="720.0"/>
      <point x="64.26" y="610.664"/>
      <point x="64.26" y="355.0" type="curve" smooth="yes"/>
      <point x="64.26" y="102.0"/>
      <point x="200.85999999999996" y="-10.0"/>
    </contour>
  </outline>
</glyph>
<glyph name="f_f_i" format="2">
  <advance width="1271.96"/>
  <unicode hex="FB03"/>
  <outline>
    <contour>
      <point x="-3.552713678800501e-15" y="512.992" type="line"/>
      <point x="-3.552713678800501e-15" y="432.69599999999997" type="line"/>
      <point x="492.3" y="432.69599999999997" type="line"/>
      <point x="492.3" y="512.992" type="line"/>
    </contour>
    <contour>
      <point x="420.96" y="512.992" type="line"/>
      <point x="420.96" y="432.69599999999997" type="line"/>
      <point x="923.8800000000001" y="432.69599999999997" type="line"/>
      <point x="923.8800000000001" y="512.992" type="line"/>
    </contour>
    <contour>
      <point x="1070.1000000000001" y="566.584" type="curve" smooth="yes"/>
      <point x="1164.2200000000003" y="566.584"/>
      <point x="1217.3200000000002" y="600.4"/>
      <point x="1217.3200000000002" y="657.536" type="curve" smooth="yes"/>
      <point x="1217.3200000000002" y="714.5039999999999"/>
      <point x="1164.2200000000003" y="748.32"/>
      <point x="1070.1000000000001" y="748.32" type="curve" smooth="yes"/>
      <point x="977.5200000000002" y="748.32"/>
      <point x="922.8800000000001" y="714.5039999999999"/>
      <point x="922.8800000000001" y="657.536" type="curve" smooth="yes"/>
      <point x="922.8800000000001" y="599.568"/>
      <point x="977.5200000000002" y="566.584"/>
    </contour>
    <contour>
      <point x="885.9399999999998" y="0.0" type="line"/>
      <point x="1257.8" y="0.0" type="line"/>
      <point x="1257.8" y="70.792" type="line"/>
      <point x="1256.8" y="70.792" type="line" smooth="yes"/>
      <point x="1235.5600000000002" y="70.792"/>
      <point x="1217.3200000000002" y="76.96000000000001"/>
      <point x="1217.3200000000002" y="98.47200000000001" type="curve" smooth="yes"/>
      <point x="1217.3200000000002" y="512.992" type="line"/>
      <point x="885.9399999999998" y="512.992" type="line"/>
      <point x="885.9399999999998" y="432.69599999999997" type="line"/>
      <point x="894.0200000000001" y="432.69599999999997" type="line" smooth="yes"/>
      <point x="919.3399999999999" y="432.69599999999997"/>
      <point x="926.4200000000002" y="421.688"/>
      <point x="926.4200000000002" y="403.504" type="curve"/>
      <point x="926.4200000000002" y="79.12799999999999" type="line"/>
      <point x="926.4200000000002" y="72.96000000000002"/>
      <point x="906.1800000000001" y="70.792"/>
      <point x="891.48" y="70.792" type="curve" smooth="yes"/>
      <point x="885.9399999999998" y="70.792" type="line"/>
    </contour>
    <contour>
      <point x="374.4" y="79.12799999999999" type="curve"/>
      <point x="374.4" y="575.304" type="line" smooth="yes"/>
      <point x="374.4" y="633.2080000000001"/>
      <point x="394.64" y="649.552"/>
      <point x="429.04" y="649.552" type="curve" smooth="yes"/>
      <point x="447.28" y="649.552"/>
      <point x="468.52" y="643.048"/>
      <point x="471.0600000000001" y="640.872" type="curve"/>
      <point x="471.0600000000001" y="724.6719999999999" type="line"/>
      <point x="455.3600000000001" y="730.6719999999999"/>
      <point x="412.34000000000003" y="737.168"/>
      <point x="361.24" y="737.168" type="curve" smooth="yes"/>
      <point x="211.48" y="737.168"/>
      <point x="84.49999999999999" y="685.1840000000001"/>
      <point x="84.49999999999999" y="532.872" type="curve" smooth="yes"/>
      <point x="84.49999999999999" y="101.8" type="line"/>
      <point x="84.49999999999999" y="80.28800000000001"/>
      <point x="66.80000000000001" y="70.792"/>
      <point x="33.400000000000006" y="70.792" type="curve" smooth="yes"/>
      <point x="19.24" y="70.792" type="line"/>
      <point x="19.24" y="0.0" type="line"/>
      <point x="418.41999999999996" y="0.0" type="line"/>
      <point x="418.41999999999996" y="70.792" type="line"/>
      <point x="414.88000000000005" y="70.792" type="line" smooth="yes"/>
      <point x="388.56000000000006" y="70.792"/>
      <point x="374.4" y="72.96000000000002"/>
    </contour>
    <contour>
      <point x="505.4600000000001" y="79.12799999999999" type="line"/>
      <point x="505.4600000000001" y="72.96000000000002"/>
      <point x="492.29999999999995" y="70.792"/>
      <point x="469.52" y="70.792" type="curve" smooth="yes"/>
      <point x="468.52" y="70.792" type="line"/>
      <point x="468.52" y="0.0" type="line"/>
      <point x="835.8399999999999" y="0.0" type="line"/>
      <point x="835.8399999999999" y="70.792" type="line"/>
      <point x="832.3" y="70.792" type="line" smooth="yes"/>
      <point x="813.0600000000002" y="70.792"/>
      <point x="795.3600000000001" y="72.96000000000002"/>
      <point x="795.3600000000001" y="79.12799999999999" type="curve"/>
      <point x="795.3600000000001" y="585.976" type="line" smooth="yes"/>
      <point x="795.3600000000001" y="643.88"/>
      <point x="813.0600000000002" y="660.2239999999999"/>
      <point x="848.0" y="660.2239999999999" type="curve" smooth="yes"/>
      <point x="863.1600000000001" y="660.2239999999999"/>
      <point x="884.4000000000001" y="654.056"/>
      <point x="886.9399999999999" y="651.88" type="curve"/>
      <point x="886.9399999999999" y="735.344" type="line"/>
      <point x="871.78" y="741.344"/>
      <point x="831.3" y="747.84"/>
      <point x="780.2" y="747.84" type="curve" smooth="yes"/>
      <point x="630.4399999999999" y="747.84"/>
      <point x="505.4600000000001" y="695.856"/>
      <point x="505.4600000000001" y="543.544" type="curve"/>
    </contour>
  </outline>
</glyph>
<glyph name="breve_hook" format="2">
  <advance width="606.1199999999999"/>
  <anchor x="297.5199999999999" y="525.0" name="_top"/>
  <outline>
    <contour>
      <point x="143.68" y="839.8159999999999" type="line"/>
      <point x="148.75999999999996" y="882.144"/>
      <point x="191.24000000000004" y="925.7919999999999"/>
      <point x="308.14" y="925.7919999999999" type="curve" smooth="yes"/>
      <point x="411.34000000000003" y="925.7919999999999"/>
      <point x="465.98" y="894.136"/>
      <point x="465.98" y="845.976" type="curve" smooth="yes"/>
      <point x="465.98" y="790.6479999999999"/>
      <point x="407.8" y="766.824"/>
      <point x="319.76" y="760.992" type="curve"/>
      <point x="354.15999999999997" y="787.32" type="line"/>
      <point x="354.15999999999997" y="737.488" type="line"/>
      <point x="242.34000000000003" y="737.488" type="line"/>
      <point x="242.34000000000003" y="800.312" type="line"/>
      <point x="303.05999999999995" y="803.312"/>
      <point x="326.84000000000003" y="816.312"/>
      <point x="326.84000000000003" y="840.6479999999999" type="curve" smooth="yes"/>
      <point x="326.84000000000003" y="856.488"/>
      <point x="318.76000000000005" y="865.824"/>
      <point x="297.5199999999999" y="865.824" type="curve" smooth="yes"/>
      <point x="278.28000000000003" y="865.824"/>
      <point x="266.11999999999995" y="856.152"/>
      <point x="262.58000000000004" y="839.8159999999999" type="curve"/>
    </contour>
    <contour>
      <point x="297.52" y="559.864" type="curve" smooth="yes"/>
      <point x="171.0" y="559.864"/>
      <point x="84.5" y="617.1840000000001"/>
      <point x="88.04000000000003" y="726.848" type="curve"/>
      <point x="215.01999999999998" y="726.848" type="line"/>
      <point x="223.64000000000004" y="683.808"/>
      <point x="257.04" y="673.7919999999999"/>
      <point x="301.06" y="673.7919999999999" type="curve" smooth="yes"/>
      <point x="345.08000000000004" y="673.7919999999999"/>
      <point x="376.94000000000005" y="683.808"/>
      <point x="385.02" y="726.848" type="curve"/>
      <point x="506.46000000000004" y="726.848" type="line"/>
      <point x="510.0" y="617.1840000000001"/>
      <point x="421.9600000000001" y="559.864"/>
    </contour>
  </outline>
</glyph>
<glyph name="caroncomb.alt" format="2">
  <advance width="2.842170943040401e-14"/>
  <anchor x="-519.62" y="574.0" name="_right"/>
  <outline>
    <contour>
      <point x="-385.02" y="527.664" type="line"/>
      <point x="-505.46" y="527.664" type="line"/>
      <point x="-505.46" y="537.664" type="line"/>
      <point x="-486.21999999999986" y="710.0" type="line"/>
      <point x="-287.9" y="710.0" type="line"/>
    </contour>
  </outline>
</glyph>
<glyph name="colonsign.proportional" format="2">
  <advance width="887.4800000000001"/>
  <outline>
    <contour>
      <point x="286.36000000000007" y="-120.0" type="line"/>
      <point x="375.94000000000005" y="-120.0" type="line"/>
      <point x="396.18000000000006" y="33.536" type="line"/>
      <point x="396.18000000000006" y="52.528" type="line"/>
      <point x="467.52" y="646.192" type="line"/>
      <point x="482.68" y="665.1840000000001" type="line"/>
      <point x="500.38" y="790.0" type="line"/>
      <point x="411.34" y="790.0" type="line"/>
      <point x="394.64" y="668.656" type="line"/>
      <point x="400.7199999999999" y="639.512" type="line"/>
      <point x="336.46000000000004" y="91.512" type="line"/>
      <point x="310.14" y="60.040000000000006" type="line"/>
    </contour>
    <contour>
      <point x="445.7399999999999" y="-120.0" type="line"/>
      <point x="535.3199999999999" y="-120.0" type="line"/>
      <point x="554.02" y="26.68" type="line"/>
      <point x="550.48" y="47.327999999999996" type="line"/>
      <point x="622.8199999999999" y="647.1840000000001" type="line"/>
      <point x="644.6" y="673.488" type="line"/>
      <point x="659.7600000000001" y="790.0" type="line"/>
      <point x="570.72" y="790.0" type="line"/>
      <point x="556.5600000000001" y="684.3280000000001" type="line"/>
      <point x="558.5600000000001" y="661.848" type="line"/>
      <point x="486.22" y="51.664" type="line"/>
      <point x="465.98" y="29.520000000000003" type="line"/>
    </contour>
    <contour>
      <point x="517.0800000000002" y="628.024" type="curve" smooth="yes"/>
      <point x="628.9" y="628.024"/>
      <point x="689.6200000000001" y="592.168"/>
      <point x="713.4" y="543.68" type="curve"/>
      <point x="782.1999999999999" y="545.712"/>
      <point x="708.8600000000001" y="615.984"/>
      <point x="663.3" y="622.472" type="curve"/>
      <point x="663.3" y="489.496" type="line"/>
      <point x="840.3800000000001" y="489.496" type="line"/>
      <point x="840.3800000000001" y="644.448" type="line"/>
      <point x="821.6800000000001" y="659.6320000000001"/>
      <point x="705.3200000000002" y="716.6400000000001"/>
      <point x="492.3" y="716.6400000000001" type="curve" smooth="yes"/>
      <point x="231.72000000000003" y="716.6400000000001"/>
      <point x="37.940000000000005" y="572.0003945205711"/>
      <point x="37.940000000000005" y="355.0" type="curve" smooth="yes"/>
      <point x="37.940000000000005" y="139.17424219178935"/>
      <point x="223.64000000000004" y="-6.640000000000001"/>
      <point x="488.76" y="-6.640000000000001" type="curve" smooth="yes"/>
      <point x="705.3199999999999" y="-6.640000000000001"/>
      <point x="815.5999999999999" y="92.68799999999999"/>
      <point x="849.0" y="237.83999999999997" type="curve"/>
      <point x="748.8000000000001" y="271.168" type="line"/>
      <point x="725.5600000000001" y="157.824"/>
      <point x="646.5999999999999" y="82.144"/>
      <point x="532.7800000000001" y="82.144" type="curve" smooth="yes"/>
      <point x="354.15999999999997" y="82.144"/>
      <point x="291.44000000000005" y="177.97386539252366"/>
      <point x="291.44000000000005" y="355.0" type="curve" smooth="yes"/>
      <point x="291.44000000000005" y="517.3484144966778"/>
      <point x="342.5400000000001" y="628.024"/>
    </contour>
  </outline>
</glyph>
<glyph name="eight.den" format="2">
  <advance width="503.91999999999996"/>
  <outline>
    <contour>
      <point x="251.95999999999998" y="208.968" type="curve" smooth="yes"/>
      <point x="99.66" y="208.968"/>
      <point x="23.78000000000001" y="173.136"/>
      <point x="23.78000000000001" y="110.64" type="curve" smooth="yes"/>
      <point x="23.78000000000001" y="40.992"/>
      <point x="96.09263157899602" y="-6.0"/>
      <point x="251.95999999999998" y="-6.0" type="curve" smooth="yes"/>
      <point x="409.38357894672004" y="-6.0"/>
      <point x="480.14000000000004" y="40.992"/>
      <point x="480.14000000000004" y="110.64" type="curve" smooth="yes"/>
      <point x="480.14000000000004" y="172.30400000000003"/>
      <point x="405.26" y="208.968"/>
    </contour>
    <contour>
      <point x="251.95999999999998" y="173.48000000000002" type="curve" smooth="yes"/>
      <point x="279.28000000000003" y="173.48000000000002"/>
      <point x="285.36" y="152.31199999999998"/>
      <point x="285.36" y="114.47200000000001" type="curve" smooth="yes"/>
      <point x="285.36" y="75.47200000000001"/>
      <point x="277.2800000000001" y="55.8"/>
      <point x="251.95999999999998" y="55.8" type="curve" smooth="yes"/>
      <point x="227.18000000000006" y="55.8"/>
      <point x="218.55999999999995" y="75.47200000000001"/>
      <point x="218.55999999999995" y="114.47200000000001" type="curve" smooth="yes"/>
      <point x="218.55999999999995" y="152.31199999999998"/>
      <point x="224.64" y="173.48000000000002"/>
    </contour>
    <contour>
      <point x="251.95999999999998" y="377.616" type="curve" smooth="yes"/>
      <point x="104.74" y="377.616"/>
      <point x="40.480000000000004" y="333.296"/>
      <point x="40.480000000000004" y="279.632" type="curve" smooth="yes"/>
      <point x="40.480000000000004" y="223.472"/>
      <point x="108.27999999999999" y="189.144"/>
      <point x="251.95999999999998" y="189.144" type="curve" smooth="yes"/>
      <point x="396.18000000000006" y="189.144"/>
      <point x="463.44000000000005" y="223.472"/>
      <point x="463.44000000000005" y="279.632" type="curve" smooth="yes"/>
      <point x="463.44000000000005" y="333.296"/>
      <point x="401.7199999999999" y="377.616"/>
    </contour>
    <contour>
      <point x="251.95999999999998" y="221.632" type="curve" smooth="yes"/>
      <point x="227.18" y="221.632"/>
      <point x="218.56" y="237.136"/>
      <point x="218.56" y="270.30400000000003" type="curve" smooth="yes"/>
      <point x="218.56" y="299.47999999999996"/>
      <point x="225.64" y="315.984"/>
      <point x="251.95999999999998" y="315.984" type="curve" smooth="yes"/>
      <point x="278.28000000000003" y="315.984"/>
      <point x="285.36" y="299.47999999999996"/>
      <point x="285.36" y="270.30400000000003" type="curve" smooth="yes"/>
      <point x="285.36" y="237.136"/>
      <point x="277.28000000000003" y="221.632"/>
    </contour>
  </outline>
</glyph>
<glyph name="five.den" format="2">
  <advance width="441.2"/>
  <outline>
    <contour>
      <point x="204.39999999999998" y="-6.0" type="curve" smooth="yes"/>
      <point x="90.57999999999998" y="-6.0"/>
      <point x="34.4" y="34.832"/>
      <point x="15.699999999999998" y="77.68" type="curve"/>
      <point x="90.57999999999998" y="115.16" type="line"/>
      <point x="97.66" y="100.96000000000001"/>
      <point x="124.97999999999999" y="59.792"/>
      <point x="171.0" y="59.792" type="curve" smooth="yes"/>
      <point x="207.94000000000003" y="59.792"/>
      <point x="230.71999999999997" y="81.968"/>
      <point x="230.71999999999997" y="122.64800000000001" type="curve" smooth="yes"/>
      <point x="230.71999999999997" y="162.656"/>
      <point x="216.55999999999997" y="183.664"/>
      <point x="180.62" y="183.664" type="curve" smooth="yes"/>
      <point x="154.84000000000003" y="183.664"/>
      <point x="138.14000000000001" y="171.16000000000003"/>
      <point x="128.52" y="152.816" type="curve"/>
      <point x="52.1" y="152.816" type="line"/>
      <point x="52.1" y="371.784" type="line"/>
      <point x="373.4" y="371.784" type="line"/>
      <point x="362.7800000000001" y="279.84" type="line"/>
      <point x="123.44" y="279.84" type="line"/>
      <point x="134.6" y="359.12" type="line"/>
      <point x="134.6" y="185.64" type="line"/>
      <point x="130.52000000000004" y="176.976"/>
      <point x="122.44" y="177.136"/>
      <point x="112.82000000000002" y="189.8" type="curve"/>
      <point x="143.68" y="219.968"/>
      <point x="184.15999999999997" y="240.968"/>
      <point x="254.5" y="240.968" type="curve" smooth="yes"/>
      <point x="354.1600000000001" y="240.968"/>
      <point x="411.34000000000003" y="196.96"/>
      <point x="411.34000000000003" y="128.472" type="curve" smooth="yes"/>
      <point x="411.34000000000003" y="43.664"/>
      <point x="332.91999999999996" y="-6.0"/>
    </contour>
  </outline>
</glyph>
<glyph name="florin" format="2">
  <advance width="665.8399999999999"/>
  <outline>
    <contour>
      <point x="91.58" y="508.0" type="line"/>
      <point x="81.95999999999998" y="419.88800000000003" type="line"/>
      <point x="599.04" y="419.88800000000003" type="line"/>
      <point x="608.6600000000001" y="508.0" type="line"/>
    </contour>
    <contour>
      <point x="386.56000000000006" y="78.464" type="curve" smooth="yes"/>
      <point x="468.52" y="560.3679999999999" type="line" smooth="yes"/>
      <point x="479.14" y="625.24"/>
      <point x="517.08" y="644.424"/>
      <point x="563.6399999999999" y="644.424" type="curve" smooth="yes"/>
      <point x="599.04" y="644.424"/>
      <point x="622.8199999999999" y="637.424"/>
      <point x="643.0600000000001" y="630.416" type="curve"/>
      <point x="651.6800000000001" y="724.704" type="line"/>
      <point x="621.8199999999999" y="736.704"/>
      <point x="575.2600000000001" y="745.3679999999999"/>
      <point x="502.91999999999996" y="745.3679999999999" type="curve" smooth="yes"/>
      <point x="332.91999999999996" y="745.3679999999999"/>
      <point x="233.26000000000002" y="682.544"/>
      <point x="209.48" y="548.8960000000001" type="curve" smooth="yes"/>
      <point x="128.52" y="64.464" type="line" smooth="yes"/>
      <point x="97.65999999999997" y="-114.872"/>
      <point x="55.63999999999998" y="-136.72"/>
      <point x="8.079999999999998" y="-136.72" type="curve" smooth="yes"/>
      <point x="-26.319999999999993" y="-136.72"/>
      <point x="-55.63999999999999" y="-124.72800000000001"/>
      <point x="-71.34" y="-119.392" type="curve"/>
      <point x="-77.42000000000002" y="-216.176" type="line"/>
      <point x="-58.17999999999999" y="-225.672"/>
      <point x="-13.16" y="-236.0"/>
      <point x="40.480000000000004" y="-236.0" type="curve" smooth="yes"/>
      <point x="215.01999999999998" y="-236.0"/>
      <point x="345.08000000000004" y="-156.664"/>
    </contour>
  </outline>
</glyph>
<glyph name="g.alt" format="2">
  <advance width="813.6000000000001"/>
  <outline>
    <contour>
      <point x="467.52" y="35.343999999999994" type="line"/>
      <point x="467.52" y="-78.872"/>
      <point x="424.5" y="-135.048"/>
      <point x="340.0" y="-135.048" type="curve" smooth="yes"/>
      <point x="274.74" y="-135.048"/>
      <point x="236.8" y="-113.864"/>
      <point x="216.56" y="-83.84" type="curve"/>
      <point x="196.32000000000002" y="-113.2"/>
      <point x="179.62" y="-169.83200000000002"/>
      <point x="244.87999999999997" y="-173.496" type="curve"/>
      <point x="244.87999999999997" y="-39.016" type="line"/>
      <point x="34.4" y="-39.016" type="line"/>
      <point x="34.4" y="-144.824" type="line"/>
      <point x="74.88" y="-193.15200000000002"/>
      <point x="194.78000000000006" y="-233.648"/>
      <point x="367.31999999999994" y="-233.648" type="curve" smooth="yes"/>
      <point x="599.04" y="-233.648"/>
      <point x="758.4199999999998" y="-135.488"/>
      <point x="758.4199999999998" y="52.152" type="curve"/>
      <point x="758.4199999999998" y="513.4960000000001" type="line"/>
      <point x="588.4199999999998" y="513.4960000000001" type="line"/>
      <point x="496.84000000000003" y="409.168" type="line"/>
      <point x="467.52" y="387.18399999999997" type="line"/>
    </contour>
    <contour>
      <point x="324.84000000000003" y="256.656" type="curve" smooth="yes"/>
      <point x="324.84000000000003" y="356.294728944177"/>
      <point x="345.08000000000004" y="417.736"/>
      <point x="400.71999999999997" y="417.736" type="curve" smooth="yes"/>
      <point x="454.36000000000007" y="417.736"/>
      <point x="473.06" y="369.904"/>
      <point x="498.38" y="304.67999999999995" type="curve"/>
      <point x="550.48" y="322.52000000000004" type="line"/>
      <point x="522.16" y="454.848"/>
      <point x="451.81999999999994" y="522.992"/>
      <point x="305.6" y="522.992" type="curve" smooth="yes"/>
      <point x="142.67999999999998" y="522.992"/>
      <point x="27.32" y="413.2052556523097"/>
      <point x="27.32" y="256.656" type="curve" smooth="yes"/>
      <point x="27.32" y="103.984"/>
      <point x="132.06" y="3.1439999999999984"/>
      <point x="295.98" y="3.1439999999999984" type="curve" smooth="yes"/>
      <point x="420.96000000000004" y="3.1439999999999984"/>
      <point x="475.6" y="61.48"/>
      <point x="535.3199999999999" y="176.16799999999998" type="curve"/>
      <point x="496.84000000000003" y="232.28" type="line"/>
      <point x="462.44" y="157.40800000000002"/>
      <point x="438.66" y="108.4"/>
      <point x="391.1" y="108.4" type="curve" smooth="yes"/>
      <point x="343.54" y="108.4"/>
      <point x="324.84000000000003" y="160.28"/>
    </contour>
  </outline>
</glyph>
<glyph name="horncomb" format="2">
  <anchor x="-396.18000000000006" y="444.0" name="_top"/>
  <outline>
    <contour>
      <point x="-510.0" y="465.672" type="line"/>
      <point x="-261.58" y="466.84"/>
      <point x="-186.7" y="517.5039999999999"/>
      <point x="-186.7" y="680.0" type="curve"/>
      <point x="-376.94000000000005" y="680.0" type="line"/>
      <point x="-379.48" y="544.832"/>
      <point x="-425.5" y="512.992"/>
      <point x="-567.1800000000001" y="512.992" type="curve"/>
    </contour>
  </outline>
</glyph>
<glyph name="literSign" format="2">
  <advance width="674.46"/>
  <outline>
    <contour>
      <point x="377.94000000000005" y="255.472" type="curve" smooth="yes"/>
      <point x="377.94000000000005" y="490.28"/>
      <point x="424.5" y="630.376"/>
      <point x="468.52" y="630.376" type="curve" smooth="yes"/>
      <point x="486.2199999999999" y="630.376"/>
      <point x="494.84000000000003" y="611.856"/>
      <point x="494.84000000000003" y="575.8159999999999" type="curve" smooth="yes"/>
      <point x="494.84000000000003" y="421.96000000000004"/>
      <point x="396.18000000000006" y="327.82207317612426"/>
      <point x="12.15999999999999" y="242.992" type="curve"/>
      <point x="35.4" y="176.856" type="line"/>
      <point x="405.2600000000001" y="260.168"/>
      <point x="644.6" y="394.992"/>
      <point x="644.6" y="572.488" type="curve" smooth="yes"/>
      <point x="644.6" y="647.4960000000001"/>
      <point x="581.3399999999999" y="710.0"/>
      <point x="462.44000000000005" y="710.0" type="curve" smooth="yes"/>
      <point x="266.41512367446" y="710.0"/>
      <point x="123.44" y="521.76"/>
      <point x="123.44" y="258.8" type="curve" smooth="yes"/>
      <point x="123.44" y="68.64"/>
      <point x="239.28493617018" y="-10.0"/>
      <point x="398.18" y="-10.0" type="curve" smooth="yes"/>
      <point x="525.7" y="-10.0"/>
      <point x="599.04" y="65.65599999999999"/>
      <point x="635.98" y="169.936" type="curve"/>
      <point x="550.48" y="203.416" type="line"/>
      <point x="523.1600000000001" y="124.77521210025691"/>
      <point x="486.21999999999997" y="77.944"/>
      <point x="443.74" y="77.944" type="curve" smooth="yes"/>
      <point x="401.60745762644" y="77.944"/>
      <point x="377.94000000000005" y="108.112"/>
    </contour>
  </outline>
</glyph>
<glyph name="one.den" format="2">
  <advance width="436.11999999999995"/>
  <outline>
    <contour>
      <point x="324.84000000000003" y="78.96" type="curve" smooth="yes"/>
      <point x="324.84000000000003" y="371.784" type="line"/>
      <point x="156.84000000000003" y="371.784" type="line"/>
      <point x="132.05999999999997" y="342.12"/>
      <point x="103.2" y="324.79200000000003"/>
      <point x="17.699999999999996" y="324.62399999999997" type="curve"/>
      <point x="17.699999999999996" y="243.84799999999998" type="line"/>
      <point x="88.04000000000002" y="243.68"/>
      <point x="125.97999999999998" y="258.016"/>
      <point x="147.21999999999997" y="313.648" type="curve"/>
      <point x="136.6" y="321.47999999999996"/>
      <point x="141.67999999999998" y="313.488"/>
      <point x="130.52" y="309.312" type="curve"/>
      <point x="130.52" y="78.96" type="line" smooth="yes"/>
      <point x="130.52" y="55.136"/>
      <point x="92.57999999999998" y="51.136"/>
      <point x="51.1" y="51.136" type="curve" smooth="yes"/>
      <point x="33.400000000000006" y="51.136" type="line"/>
      <point x="33.400000000000006" y="0.0" type="line"/>
      <point x="411.34000000000003" y="0.0" type="line"/>
      <point x="411.34000000000003" y="51.136" type="line"/>
      <point x="403.2600000000001" y="51.136" type="line" smooth="yes"/>
      <point x="357.70000000000005" y="51.136"/>
      <point x="324.84000000000003" y="55.136"/>
    </contour>
  </outline>
</glyph>
<glyph name="slash.uc" format="2">
  <advance width="590.96"/>
  <outline>
    <contour>
      <point x="412.34000000000003" y="741.68" type="line"/>
      <point x="44.019999999999996" y="-34.84" type="line"/>
      <point x="234.25999999999993" y="-34.84" type="line"/>
      <point x="602.58" y="741.68" type="line"/>
    </contour>
  </outline>
</glyph>
<glyph name="two.lin" format="2">
  <advance width="665.8399999999999"/>
  <outline>
    <contour>
      <point x="320.76" y="720.0" type="curve" smooth="yes"/>
      <point x="519.6199999999999" y="720.0"/>
      <point x="621.8199999999999" y="644.84"/>
      <point x="621.8199999999999" y="519.664" type="curve" smooth="yes"/>
      <point x="621.8199999999999" y="345.66400000000004"/>
      <point x="356.7" y="210.44"/>
      <point x="145.22000000000003" y="116.55200000000002" type="curve"/>
      <point x="118.9" y="117.88799999999999"/>
      <point x="125.97999999999999" y="139.216"/>
      <point x="126.97999999999999" y="145.216" type="curve"/>
      <point x="383.02" y="145.216" type="line" smooth="yes"/>
      <point x="473.06000000000006" y="145.216"/>
      <point x="505.4599999999999" y="152.216"/>
      <point x="512.5400000000001" y="187.87999999999997" type="curve" smooth="yes"/>
      <point x="523.1600000000001" y="242.416" type="line"/>
      <point x="632.4399999999999" y="242.416" type="line"/>
      <point x="632.4399999999999" y="0.0" type="line"/>
      <point x="22.78000000000001" y="0.0" type="line"/>
      <point x="22.78000000000001" y="158.39199999999997" type="line"/>
      <point x="217.55999999999997" y="270.592"/>
      <point x="350.61999999999995" y="364.16"/>
      <point x="350.61999999999995" y="522.832" type="curve" smooth="yes"/>
      <point x="350.61999999999995" y="601.2"/>
      <point x="324.84" y="629.2159999999999"/>
      <point x="279.28000000000003" y="629.2159999999999" type="curve" smooth="yes"/>
      <point x="243.88" y="629.2159999999999"/>
      <point x="218.55999999999997" y="606.688"/>
      <point x="203.4" y="580.152" type="curve"/>
      <point x="198.32" y="588.032"/>
      <point x="192.78" y="636.992"/>
      <point x="233.26" y="639.992" type="curve"/>
      <point x="233.26" y="512.192" type="line"/>
      <point x="28.319999999999997" y="512.192" type="line"/>
      <point x="28.319999999999997" y="643.968" type="line"/>
      <point x="78.42000000000002" y="680.6479999999999"/>
      <point x="184.16" y="720.0"/>
    </contour>
  </outline>
</glyph>
<glyph name="yen.proportional" format="2">
  <advance width="746.8"/>
  <outline>
    <contour>
      <point x="66.8" y="370.64" type="line"/>
      <point x="66.8" y="283.69599999999997" type="line"/>
      <point x="685.0800000000002" y="283.69599999999997" type="line"/>
      <point x="685.0800000000002" y="370.64" type="line"/>
    </contour>
    <contour>
      <point x="66.8" y="238.976" type="line"/>
      <point x="66.8" y="152.032" type="line"/>
      <point x="685.0800000000002" y="152.032" type="line"/>
      <point x="685.0800000000002" y="238.976" type="line"/>
    </contour>
    <contour>
      <point x="23.780000000000005" y="710.0" type="line"/>
      <point x="23.780000000000005" y="633.88" type="line"/>
      <point x="33.4" y="633.88" type="line" smooth="yes"/>
      <point x="52.099999999999994" y="633.88"/>
      <point x="63.25999999999999" y="630.384"/>
      <point x="77.42" y="607.88" type="curve" smooth="yes"/>
      <point x="247.42000000000004" y="329.648" type="line"/>
      <point x="507.4599999999999" y="327.984" type="line"/>
      <point x="659.7600000000001" y="592.88" type="line" smooth="yes"/>
      <point x="680.0" y="627.2159999999999"/>
      <point x="693.1600000000001" y="633.88"/>
      <point x="714.4000000000001" y="633.88" type="curve" smooth="yes"/>
      <point x="723.0200000000002" y="633.88" type="line"/>
      <point x="723.0200000000002" y="710.0" type="line"/>
      <point x="516.08" y="710.0" type="line"/>
      <point x="516.08" y="633.88" type="line"/>
      <point x="518.62" y="633.88" type="line" smooth="yes"/>
      <point x="538.8600000000001" y="633.88"/>
      <point x="558.5600000000001" y="626.88"/>
      <point x="558.5600000000001" y="615.88" type="curve"/>
      <point x="428.0400000000001" y="381.13599999999997" type="line"/>
      <point x="498.38" y="398.60800000000006" type="line"/>
      <point x="369.8600000000001" y="623.88" type="line"/>
      <point x="369.8600000000001" y="630.88"/>
      <point x="387.56" y="633.88"/>
      <point x="405.26" y="633.88" type="curve" smooth="yes"/>
      <point x="412.34000000000003" y="633.88" type="line"/>
      <point x="412.34000000000003" y="710.0" type="line"/>
    </contour>
    <contour>
      <point x="159.38" y="0.0" type="line"/>
      <point x="591.96" y="0.0" type="line"/>
      <point x="591.96" y="76.11999999999999" type="line"/>
      <point x="575.2600000000001" y="76.11999999999999" type="line" smooth="yes"/>
      <point x="546.94" y="76.11999999999999"/>
      <point x="525.7" y="83.11999999999999"/>
      <point x="525.7" y="112.11999999999999" type="curve" smooth="yes"/>
      <point x="525.7" y="374.648" type="line"/>
      <point x="225.63999999999996" y="374.648" type="line"/>
      <point x="225.63999999999996" y="112.11999999999999" type="line" smooth="yes"/>
      <point x="225.63999999999996" y="83.11999999999999"/>
      <point x="204.40000000000003" y="76.11999999999999"/>
      <point x="176.08000000000004" y="76.11999999999999" type="curve" smooth="yes"/>
      <point x="159.38" y="76.11999999999999" type="line"/>
    </contour>
  </outline>
</glyph>
<glyph name="zero.slash" format="2">
  <advance width="665.8399999999999"/>
  <outline>
    <contour>
      <point x="196.32" y="134.0" type="line"/>
      <point x="471.0600000000001" y="370.912" type="line"/>
      <point x="471.06000000000006" y="474.0" type="line"/>
      <point x="196.32000000000002" y="236.584" type="line"/>
    </contour>
    <contour>
      <point x="332.91999999999996" y="-11.0" type="curve" smooth="yes"/>
      <point x="519.62" y="-11.0"/>
      <point x="651.6800000000001" y="108.68"/>
      <point x="651.6800000000001" y="304.0" type="curve" smooth="yes"/>
      <point x="651.6800000000001" y="499.32000000000005"/>
      <point x="519.62" y="619.0"/>
      <point x="332.91999999999996" y="619.0" type="curve" smooth="yes"/>
      <point x="146.22" y="619.0"/>
      <point x="14.160000000000004" y="499.32000000000005"/>
      <point x="14.160000000000004" y="304.0" type="curve" smooth="yes"/>
      <point x="14.160000000000004" y="108.68"/>
      <point x="146.22" y="-11.0"/>
    </contour>
    <contour>
      <point x="332.91999999999996" y="77.95200000000001" type="curve" smooth="yes"/>
      <point x="284.78249999999997" y="77.95200000000001"/>
      <point x="272.2" y="124.70400000000001"/>
      <point x="272.2" y="304.0" type="curve" smooth="yes"/>
      <point x="272.2" y="483.296"/>
      <point x="284.78249999999997" y="530.2159999999999"/>
      <point x="332.91999999999996" y="530.2159999999999" type="curve" smooth="yes"/>
      <point x="381.0575" y="530.2159999999999"/>
      <point x="393.64000000000004" y="483.296"/>
      <point x="393.64000000000004" y="304.0" type="curve" smooth="yes"/>
      <point x="393.64000000000004" y="124.536"/>
      <point x="381.0575" y="77.95200000000001"/>
    </contour>
  </outline>
</glyph>
